# xmcd CD database file generated by freedbAccess_ocx
#
# Track frame offsets:
#       150
#       25517
#       57150
#       84357
#       111190
#       135140
#       166280
#       199102
#       225162
#
# Disc length: 3251 seconds
#
# Revision: 0
# Processed by: cddbd v1.4PL0 Copyright (c) Steve Scherf et al.
# Submitted via: CDnGo 1.95
#
DISCID=5b0cb109
DTITLE=John Levens - Faithful Through The Night
DYEAR=1997
DGENRE=Contemporary Christian
TTITLE0=True Intentions
TTITLE1=Nothing But the Blood
TTITLE2=Thank You, Lord
TTITLE3=There Is None Like You
TTITLE4=Faithful Through the Night
TTITLE5=You Are My All In All
TTITLE6=My Jesus I Love Thee
TTITLE7=I Miss You
TTITLE8=I Love You Lord
EXTD=
EXTT0=
EXTT1=
EXTT2=
EXTT3=
EXTT4=
EXTT5=
EXTT6=
EXTT7=
EXTT8=
PLAYORDER=
